<svg width="200" height="200" viewBox="0 0 200 200" fill="none" xmlns="http://www.w3.org/2000/svg">
<path fill-rule="evenodd" clip-rule="evenodd" d="M174.448 31.6323V32.0206C180.964 33.5443 185.818 39.3913 185.818 46.3719H185.819V57.742H159.709V162.6H159.709C159.708 170.722 153.138 177.31 145.022 177.338H144.97V177.339H132.758V177.339H43.6925V177.34C35.5524 177.34 28.9535 170.741 28.9535 162.601L43.6922 162.601V162.6L28.9531 162.6V151.23H55.9041V46.3721H82.0133V46.3719V46.3719L70.6432 46.3719V31.6328H159.709V31.6323H174.365C173.821 31.6353 173.284 31.6677 172.756 31.7281C173.33 31.7932 173.895 31.8913 174.448 32.0205V31.6323H174.448ZM55.904 46.3714V46.3713C55.904 38.2492 62.4737 31.6615 70.5889 31.6323L70.6431 31.6323V46.3714L55.904 46.3714Z" fill="#DFE3EC"/>
<path fill-rule="evenodd" clip-rule="evenodd" d="M131.126 167.442L131.073 167.442L131.073 152.703L145.812 152.703C145.812 152.703 145.812 152.703 145.812 152.703C145.812 160.826 139.242 167.414 131.126 167.442Z" fill="#56DC90"/>
<rect x="70.2227" y="37.7388" width="103.805" height="11.3702" fill="#190E58"/>
<rect x="70.2227" y="23" width="89.0662" height="14.7391" fill="#190E58"/>
<path fill-rule="evenodd" clip-rule="evenodd" d="M159.304 23.001C167.437 23.0092 174.028 29.6049 174.028 37.7401C174.028 37.7401 174.028 37.7401 174.028 37.7401H159.289V23.001H159.304Z" fill="#190E58"/>
<rect x="42.0059" y="37.7388" width="103.805" height="116.228" fill="#56DC90"/>
<path d="M54.7575 83.2428V78.3202L65.8612 60.9615H73.8188V78.2832H77.0759V83.2428H73.8188V87.7583H67.7858V83.2428H54.7575ZM61.0496 78.2832H67.8969V67.6607H67.6748L61.0496 78.0611V78.2832ZM91.3996 88.1284C84.4413 88.1284 80.1849 83.1503 80.1849 74.3599C80.1849 65.5695 84.4413 60.5913 91.3996 60.5913C98.3579 60.5913 102.633 65.6065 102.614 74.3599C102.633 83.1688 98.3579 88.1284 91.3996 88.1284ZM86.6621 74.3599C86.6436 80.3003 88.5497 82.9837 91.3996 82.9837C94.2496 82.9837 96.1557 80.3003 96.1372 74.3599C96.1372 68.5119 94.2496 65.7175 91.3996 65.699C88.5682 65.7175 86.6806 68.5119 86.6621 74.3599ZM105.908 83.2428V78.3202L117.012 60.9615H124.97V78.2832H128.227V83.2428H124.97V87.7583H118.937V83.2428H105.908ZM112.2 78.2832H119.048V67.6607H118.826L112.2 78.0611V78.2832Z" fill="#008059"/>
<rect width="3.59656" height="64.7381" rx="1.79828" transform="matrix(1.19249e-08 -1 -1 -1.19249e-08 118.811 110.413)" fill="#10C677"/>
<rect width="3.57949" height="78.5383" rx="1.78975" transform="matrix(1.19249e-08 -1 -1 -1.19249e-08 132.547 123.858)" fill="#10C677"/>
<rect width="89.0662" height="14.7391" transform="matrix(1 0 0 -1 42.0059 167.443)" fill="#56DC90"/>
<rect x="56.7461" y="23" width="89.0662" height="14.7391" fill="#56DC90"/>
<path fill-rule="evenodd" clip-rule="evenodd" d="M42.0059 37.7392C42.0059 37.7392 42.0059 37.7392 42.0059 37.7393L56.7449 37.7393L56.7449 23.0002L56.6908 23.0002C48.5755 23.0293 42.0059 29.617 42.0059 37.7392Z" fill="#56DC90"/>
<path fill-rule="evenodd" clip-rule="evenodd" d="M160.552 23.001H145.812V37.7401H145.813L145.813 37.7323C145.817 29.6137 152.385 23.0302 160.498 23.0012L160.552 23.0012V23.001Z" fill="#56DC90"/>
<path fill-rule="evenodd" clip-rule="evenodd" d="M118.861 152.702L118.861 167.441L133.505 167.441C125.409 167.389 118.861 160.81 118.861 152.702L133.6 152.702L133.6 167.441L133.6 167.441L133.6 152.702L118.861 152.702Z" fill="#190E58"/>
<rect x="118.861" y="152.705" width="103.805" height="11.3702" transform="rotate(-180 118.861 152.705)" fill="#190E58"/>
<rect x="118.861" y="167.444" width="89.0662" height="14.7391" transform="rotate(-180 118.861 167.444)" fill="#190E58"/>
<path fill-rule="evenodd" clip-rule="evenodd" d="M29.7812 167.445C21.6474 167.437 15.0559 160.841 15.0559 152.706L29.7949 152.706L29.7949 167.445L29.7812 167.445Z" fill="#190E58"/>
</svg>
